<?xml version="1.0" standalone="no"?>
<!DOCTYPE svg PUBLIC "-//W3C//DTD SVG 20010904//EN"
 "http://www.w3.org/TR/2001/REC-SVG-20010904/DTD/svg10.dtd">
<svg version="1.0" xmlns="http://www.w3.org/2000/svg"
 width="512.000000pt" height="512.000000pt" viewBox="0 0 512.000000 512.000000"
 preserveAspectRatio="xMidYMid meet">
<metadata>
Created by potrace 1.14, written by Peter Selinger 2001-2017
</metadata>
<g transform="translate(0.000000,512.000000) scale(0.100000,-0.100000)"
fill="#000000" stroke="none">
<path d="M1980 4700 c-75 -14 -134 -60 -172 -133 -21 -39 -22 -57 -25 -271 -1
-126 -4 -230 -5 -231 -2 -2 -19 -5 -38 -7 -49 -6 -81 -22 -112 -54 -36 -39
-44 -63 -58 -180 -7 -54 -14 -100 -15 -102 -2 -3 -104 51 -155 82 -100 61
-196 86 -314 82 -110 -4 -148 -14 -240 -60 -146 -72 -256 -216 -290 -379 -58
-276 94 -544 367 -646 56 -21 120 -29 235 -30 l83 -1 -51 -61 c-59 -71 -169
-231 -189 -274 l-13 -30 -18 54 c-10 29 -27 65 -37 79 -28 38 -101 79 -151 86
-24 3 -60 10 -80 15 -107 28 -195 14 -250 -41 -56 -54 -62 -74 -118 -358 -3
-14 -18 -90 -34 -170 -16 -80 -31 -157 -34 -173 -3 -15 -7 -35 -10 -45 -3 -9
-7 -34 -11 -56 -3 -21 -7 -41 -9 -45 -2 -3 -7 -26 -10 -51 -3 -25 -8 -56 -11
-69 -8 -45 15 -117 52 -161 42 -49 79 -67 178 -87 117 -24 189 -27 224 -10
l31 15 1 -41 c1 -23 1 -48 0 -55 -5 -34 33 -126 66 -163 50 -55 102 -79 183
-86 57 -5 68 -9 65 -23 -8 -42 26 -177 65 -258 75 -157 242 -292 410 -332 371
-88 739 180 764 557 l4 48 531 3 c292 1 531 -1 532 -5 0 -5 2 -27 4 -51 5 -72
26 -144 62 -218 125 -256 406 -395 684 -338 80 17 115 31 199 81 169 100 287
297 294 493 l2 35 79 6 c123 9 201 61 243 159 17 41 19 74 20 362 0 357 -4
394 -60 514 -38 81 -149 157 -244 168 -21 3 -138 8 -259 11 -121 3 -236 8
-255 11 -45 7 -109 39 -144 71 -25 23 -96 125 -96 137 0 24 -241 386 -298 448
-47 50 -125 103 -198 133 l-59 25 55 0 c111 2 170 15 243 51 61 30 86 53 114
104 24 45 23 293 -3 645 -6 76 -18 136 -31 156 -16 23 -79 54 -110 54 -18 0
-72 -11 -120 -25 -113 -32 -313 -74 -314 -66 -1 3 -3 120 -4 258 -2 252 -3
253 -29 308 -15 30 -44 68 -64 85 -68 56 -93 59 -577 58 -242 0 -456 -4 -475
-8z"/>
</g>
</svg>
